<svg xmlns="http://www.w3.org/2000/svg" width="26.875" height="26.875" viewBox="0 0 26.875 26.875">
  <path id="Icon_awesome-arrow-alt-circle-down" data-name="Icon awesome-arrow-alt-circle-down" d="M27.438,14A13.438,13.438,0,1,1,14,.563,13.435,13.435,0,0,1,27.438,14ZM11.616,7.715V14H7.774a.651.651,0,0,0-.461,1.111L13.539,21.3a.644.644,0,0,0,.916,0l6.226-6.193A.65.65,0,0,0,20.22,14H16.384V7.715a.652.652,0,0,0-.65-.65H12.266A.652.652,0,0,0,11.616,7.715Z" transform="translate(-0.563 -0.563)" fill="#142ed9"/>
</svg>
